<svg width="109" height="234" viewBox="0 0 109 234" fill="none" xmlns="http://www.w3.org/2000/svg">
<rect x="0.5" y="0.5" width="108" height="233" rx="4.5" stroke="#8A38F5" stroke-dasharray="10 5"/>
<g filter="url(#filter0_d_345_5093)">
<rect x="20" y="20" width="69" height="64" rx="12" fill="#292929" shape-rendering="crispEdges"/>
<rect x="20.5" y="20.5" width="68" height="63" rx="11.5" stroke="#414040" shape-rendering="crispEdges"/>
<path d="M43.9167 63V57C43.9167 53.134 47.0507 50 50.9167 50H59.0833C62.9493 50 66.0833 53.134 66.0833 57V63" stroke="white" stroke-width="2" stroke-linecap="round" stroke-linejoin="round"/>
<path d="M55 50C58.4978 50 61.3333 47.0899 61.3333 43.5C61.3333 39.9101 58.4978 37 55 37C51.5022 37 48.6667 39.9101 48.6667 43.5C48.6667 47.0899 51.5022 50 55 50Z" stroke="white" stroke-width="2" stroke-linecap="round" stroke-linejoin="round"/>
</g>
<path d="M45.3455 101L44.5655 98.732H41.3375L40.5695 101H38.9375L42.0815 92.396H43.8335L46.9775 101H45.3455ZM43.4255 95.204C43.3935 95.092 43.3455 94.94 43.2815 94.748C43.2175 94.556 43.1535 94.36 43.0895 94.16C43.0335 93.952 42.9895 93.78 42.9575 93.644C42.9175 93.804 42.8655 93.988 42.8015 94.196C42.7455 94.404 42.6895 94.6 42.6335 94.784C42.5855 94.968 42.5455 95.108 42.5135 95.204L41.7575 97.412H44.1695L43.4255 95.204ZM51.4403 94.376C52.1683 94.376 52.7363 94.564 53.1443 94.94C53.5603 95.316 53.7683 95.924 53.7683 96.764V101H52.2563V97.064C52.2563 96.576 52.1603 96.212 51.9683 95.972C51.7763 95.724 51.4723 95.6 51.0563 95.6C50.4483 95.6 50.0323 95.792 49.8083 96.176C49.5843 96.552 49.4723 97.1 49.4723 97.82V101H47.9603V94.496H49.1243L49.3403 95.348H49.4243C49.5683 95.124 49.7443 94.94 49.9523 94.796C50.1603 94.652 50.3923 94.548 50.6483 94.484C50.9043 94.412 51.1683 94.376 51.4403 94.376ZM58.1795 99.908C58.3715 99.908 58.5555 99.892 58.7315 99.86C58.9075 99.82 59.0715 99.776 59.2235 99.728V100.856C59.0635 100.928 58.8555 100.988 58.5995 101.036C58.3435 101.092 58.0755 101.12 57.7955 101.12C57.4275 101.12 57.0915 101.06 56.7875 100.94C56.4915 100.812 56.2515 100.596 56.0675 100.292C55.8915 99.988 55.8035 99.564 55.8035 99.02V95.636H54.9275V94.976L55.8875 94.448L56.3675 93.068H57.3155V94.496H59.1635V95.636H57.3155V99.008C57.3155 99.312 57.3955 99.54 57.5555 99.692C57.7155 99.836 57.9235 99.908 58.1795 99.908ZM63.1265 94.376C63.9665 94.376 64.6025 94.56 65.0345 94.928C65.4745 95.288 65.6945 95.856 65.6945 96.632V101H64.6265L64.3265 100.1H64.2785C64.0945 100.332 63.9025 100.528 63.7025 100.688C63.5105 100.84 63.2865 100.948 63.0305 101.012C62.7825 101.084 62.4785 101.12 62.1185 101.12C61.7345 101.12 61.3865 101.048 61.0745 100.904C60.7705 100.76 60.5305 100.54 60.3545 100.244C60.1785 99.94 60.0905 99.56 60.0905 99.104C60.0905 98.432 60.3345 97.928 60.8225 97.592C61.3185 97.248 62.0665 97.06 63.0665 97.028L64.1945 96.992V96.668C64.1945 96.252 64.0945 95.956 63.8945 95.78C63.6945 95.604 63.4145 95.516 63.0545 95.516C62.7265 95.516 62.4105 95.564 62.1065 95.66C61.8025 95.756 61.5065 95.868 61.2185 95.996L60.7385 94.94C61.0585 94.772 61.4225 94.636 61.8305 94.532C62.2465 94.428 62.6785 94.376 63.1265 94.376ZM63.4025 97.952C62.7385 97.976 62.2785 98.092 62.0225 98.3C61.7665 98.5 61.6385 98.772 61.6385 99.116C61.6385 99.42 61.7305 99.64 61.9145 99.776C62.0985 99.912 62.3345 99.98 62.6225 99.98C63.0625 99.98 63.4345 99.856 63.7385 99.608C64.0425 99.352 64.1945 98.976 64.1945 98.48V97.928L63.4025 97.952ZM69.1012 101H67.5892V91.88H69.1012V101Z" fill="white"/>
<g filter="url(#filter1_d_345_5093)">
<rect x="20" y="127" width="69" height="64" rx="12" fill="#650306" shape-rendering="crispEdges"/>
<path d="M43.9167 170V164C43.9167 160.134 47.0507 157 50.9167 157H59.0833C62.9493 157 66.0833 160.134 66.0833 164V170" stroke="white" stroke-width="2" stroke-linecap="round" stroke-linejoin="round"/>
<path d="M55 157C58.4978 157 61.3333 154.09 61.3333 150.5C61.3333 146.91 58.4978 144 55 144C51.5022 144 48.6667 146.91 48.6667 150.5C48.6667 154.09 51.5022 157 55 157Z" stroke="white" stroke-width="2" stroke-linecap="round" stroke-linejoin="round"/>
</g>
<path d="M45.3455 208L44.5655 205.732H41.3375L40.5695 208H38.9375L42.0815 199.396H43.8335L46.9775 208H45.3455ZM43.4255 202.204C43.3935 202.092 43.3455 201.94 43.2815 201.748C43.2175 201.556 43.1535 201.36 43.0895 201.16C43.0335 200.952 42.9895 200.78 42.9575 200.644C42.9175 200.804 42.8655 200.988 42.8015 201.196C42.7455 201.404 42.6895 201.6 42.6335 201.784C42.5855 201.968 42.5455 202.108 42.5135 202.204L41.7575 204.412H44.1695L43.4255 202.204ZM51.4403 201.376C52.1683 201.376 52.7363 201.564 53.1443 201.94C53.5603 202.316 53.7683 202.924 53.7683 203.764V208H52.2563V204.064C52.2563 203.576 52.1603 203.212 51.9683 202.972C51.7763 202.724 51.4723 202.6 51.0563 202.6C50.4483 202.6 50.0323 202.792 49.8083 203.176C49.5843 203.552 49.4723 204.1 49.4723 204.82V208H47.9603V201.496H49.1243L49.3403 202.348H49.4243C49.5683 202.124 49.7443 201.94 49.9523 201.796C50.1603 201.652 50.3923 201.548 50.6483 201.484C50.9043 201.412 51.1683 201.376 51.4403 201.376ZM58.1795 206.908C58.3715 206.908 58.5555 206.892 58.7315 206.86C58.9075 206.82 59.0715 206.776 59.2235 206.728V207.856C59.0635 207.928 58.8555 207.988 58.5995 208.036C58.3435 208.092 58.0755 208.12 57.7955 208.12C57.4275 208.12 57.0915 208.06 56.7875 207.94C56.4915 207.812 56.2515 207.596 56.0675 207.292C55.8915 206.988 55.8035 206.564 55.8035 206.02V202.636H54.9275V201.976L55.8875 201.448L56.3675 200.068H57.3155V201.496H59.1635V202.636H57.3155V206.008C57.3155 206.312 57.3955 206.54 57.5555 206.692C57.7155 206.836 57.9235 206.908 58.1795 206.908ZM63.1265 201.376C63.9665 201.376 64.6025 201.56 65.0345 201.928C65.4745 202.288 65.6945 202.856 65.6945 203.632V208H64.6265L64.3265 207.1H64.2785C64.0945 207.332 63.9025 207.528 63.7025 207.688C63.5105 207.84 63.2865 207.948 63.0305 208.012C62.7825 208.084 62.4785 208.12 62.1185 208.12C61.7345 208.12 61.3865 208.048 61.0745 207.904C60.7705 207.76 60.5305 207.54 60.3545 207.244C60.1785 206.94 60.0905 206.56 60.0905 206.104C60.0905 205.432 60.3345 204.928 60.8225 204.592C61.3185 204.248 62.0665 204.06 63.0665 204.028L64.1945 203.992V203.668C64.1945 203.252 64.0945 202.956 63.8945 202.78C63.6945 202.604 63.4145 202.516 63.0545 202.516C62.7265 202.516 62.4105 202.564 62.1065 202.66C61.8025 202.756 61.5065 202.868 61.2185 202.996L60.7385 201.94C61.0585 201.772 61.4225 201.636 61.8305 201.532C62.2465 201.428 62.6785 201.376 63.1265 201.376ZM63.4025 204.952C62.7385 204.976 62.2785 205.092 62.0225 205.3C61.7665 205.5 61.6385 205.772 61.6385 206.116C61.6385 206.42 61.7305 206.64 61.9145 206.776C62.0985 206.912 62.3345 206.98 62.6225 206.98C63.0625 206.98 63.4345 206.856 63.7385 206.608C64.0425 206.352 64.1945 205.976 64.1945 205.48V204.928L63.4025 204.952ZM69.1012 208H67.5892V198.88H69.1012V208Z" fill="white"/>
<defs>
<filter id="filter0_d_345_5093" x="4.4" y="8.4" width="100.2" height="95.2" filterUnits="userSpaceOnUse" color-interpolation-filters="sRGB">
<feFlood flood-opacity="0" result="BackgroundImageFix"/>
<feColorMatrix in="SourceAlpha" type="matrix" values="0 0 0 0 0 0 0 0 0 0 0 0 0 0 0 0 0 0 127 0" result="hardAlpha"/>
<feOffset dy="4"/>
<feGaussianBlur stdDeviation="7.8"/>
<feComposite in2="hardAlpha" operator="out"/>
<feColorMatrix type="matrix" values="0 0 0 0 0 0 0 0 0 0 0 0 0 0 0 0 0 0 0.25 0"/>
<feBlend mode="normal" in2="BackgroundImageFix" result="effect1_dropShadow_345_5093"/>
<feBlend mode="normal" in="SourceGraphic" in2="effect1_dropShadow_345_5093" result="shape"/>
</filter>
<filter id="filter1_d_345_5093" x="4.4" y="115.4" width="100.2" height="95.2" filterUnits="userSpaceOnUse" color-interpolation-filters="sRGB">
<feFlood flood-opacity="0" result="BackgroundImageFix"/>
<feColorMatrix in="SourceAlpha" type="matrix" values="0 0 0 0 0 0 0 0 0 0 0 0 0 0 0 0 0 0 127 0" result="hardAlpha"/>
<feOffset dy="4"/>
<feGaussianBlur stdDeviation="7.8"/>
<feComposite in2="hardAlpha" operator="out"/>
<feColorMatrix type="matrix" values="0 0 0 0 0 0 0 0 0 0 0 0 0 0 0 0 0 0 0.25 0"/>
<feBlend mode="normal" in2="BackgroundImageFix" result="effect1_dropShadow_345_5093"/>
<feBlend mode="normal" in="SourceGraphic" in2="effect1_dropShadow_345_5093" result="shape"/>
</filter>
</defs>
</svg>
