<svg width="43" height="88" viewBox="0 0 43 88" fill="none" xmlns="http://www.w3.org/2000/svg">
<rect x="0.193411" y="0.193411" width="42.6132" height="87.6132" rx="1.7407" stroke="#9747FF" stroke-width="0.386822" stroke-dasharray="3.87 1.93"/>
<rect x="3" width="40" height="40" rx="12" fill="#F5F5F5"/>
<path d="M7.73633 15.9159C7.73636 14.2658 8.23692 12.6546 9.17189 11.2949C10.1069 9.9353 11.4323 8.89127 12.9731 8.30073C14.5138 7.71018 16.1975 7.6009 17.8017 7.98732C19.4059 8.37375 20.8551 9.23769 21.958 10.465C22.0357 10.5481 22.1296 10.6143 22.2339 10.6596C22.3383 10.7049 22.4508 10.7282 22.5645 10.7282C22.6782 10.7282 22.7907 10.7049 22.8951 10.6596C22.9994 10.6143 23.0933 10.5481 23.171 10.465C24.2704 9.22971 25.72 8.35851 27.3268 7.96739C28.9336 7.57627 30.6214 7.68379 32.1656 8.27564C33.7097 8.86749 35.0371 9.91559 35.9708 11.2805C36.9046 12.6453 37.4006 14.2622 37.3927 15.9159C37.3927 19.3115 35.1685 21.8472 32.9442 24.0714L24.8006 31.9496C24.5243 32.2669 24.1836 32.5218 23.8012 32.6974C23.4188 32.8729 23.0035 32.9651 22.5827 32.9678C22.162 32.9704 21.7455 32.8835 21.3609 32.7128C20.9763 32.5421 20.6324 32.2916 20.3521 31.9778L12.1848 24.0714C9.96055 21.8472 7.73633 19.3264 7.73633 15.9159Z" stroke="#650306" stroke-width="1.54729" stroke-linecap="round" stroke-linejoin="round"/>
<path d="M8 58.1794C8.00003 56.5294 8.50059 54.9181 9.43556 53.5585C10.3705 52.1989 11.6959 51.1548 13.2367 50.5643C14.7775 49.9737 16.4612 49.8645 18.0654 50.2509C19.6696 50.6373 21.1188 51.5013 22.2217 52.7286C22.2994 52.8117 22.3933 52.8779 22.4976 52.9232C22.6019 52.9684 22.7145 52.9918 22.8282 52.9918C22.9419 52.9918 23.0544 52.9684 23.1587 52.9232C23.2631 52.8779 23.357 52.8117 23.4346 52.7286C24.5341 51.4933 25.9836 50.6221 27.5904 50.231C29.1972 49.8398 30.8851 49.9474 32.4292 50.5392C33.9734 51.1311 35.3007 52.1792 36.2345 53.544C37.1683 54.9089 37.6642 56.5258 37.6564 58.1794C37.6564 61.5751 35.4321 64.1107 33.2079 66.3349L25.0643 74.2132C24.788 74.5305 24.4473 74.7854 24.0649 74.9609C23.6825 75.1365 23.2672 75.2287 22.8464 75.2313C22.4256 75.234 22.0091 75.1471 21.6246 74.9764C21.24 74.8057 20.8961 74.5551 20.6158 74.2413L12.4485 66.3349C10.2242 64.1107 8 61.5899 8 58.1794Z" fill="#650306" stroke="#650306" stroke-width="1.54729" stroke-linecap="round" stroke-linejoin="round"/>
<rect x="3" y="42" width="40" height="40" rx="12" fill="#F5F5F5"/>
<path d="M7.73633 57.9159C7.73636 56.2658 8.23692 54.6546 9.17189 53.2949C10.1069 51.9353 11.4323 50.8913 12.9731 50.3007C14.5138 49.7102 16.1975 49.6009 17.8017 49.9873C19.4059 50.3737 20.8551 51.2377 21.958 52.465C22.0357 52.5481 22.1296 52.6143 22.2339 52.6596C22.3383 52.7049 22.4508 52.7282 22.5645 52.7282C22.6782 52.7282 22.7907 52.7049 22.8951 52.6596C22.9994 52.6143 23.0933 52.5481 23.171 52.465C24.2704 51.2297 25.72 50.3585 27.3268 49.9674C28.9336 49.5763 30.6214 49.6838 32.1656 50.2756C33.7097 50.8675 35.0371 51.9156 35.9708 53.2805C36.9046 54.6453 37.4006 56.2622 37.3927 57.9159C37.3927 61.3115 35.1685 63.8472 32.9442 66.0714L24.8006 73.9496C24.5243 74.2669 24.1836 74.5218 23.8012 74.6974C23.4188 74.8729 23.0035 74.9651 22.5827 74.9678C22.162 74.9704 21.7455 74.8835 21.3609 74.7128C20.9763 74.5421 20.6324 74.2916 20.3521 73.9778L12.1848 66.0714C9.96055 63.8472 7.73633 61.3264 7.73633 57.9159Z" fill="#650306" stroke="#650306" stroke-width="1.54729" stroke-linecap="round" stroke-linejoin="round"/>
</svg>
